<svg xmlns="http://www.w3.org/2000/svg" viewBox="0 0 324.69 325.72"><defs><style>.cls-1{fill-rule:evenodd;}.cls-2{fill:#bf0811;}</style></defs><title>Ativo 1</title><g id="Camada_2" data-name="Camada 2"><g id="Camada_1-2" data-name="Camada 1"><path class="cls-1" d="M70,38.13c1.68-.2,3.35-.35,5-.42.3-1.53-.58-2.83,0-3.46A54.92,54.92,0,0,1,70,38.13Zm3.76,1.22c-1-.1-3.1,2.11-4.7,2.75.56,1.74.11,2.07-.79,3.14-1.23.18-.88-1.21-2.35-.79.18-1.25,1.7-.78,2,0,1-3.62,3.14-4.36,5.72-5.84-1.47.13-3.13.23-4.6.36-2.24,2-4.16,4.46-4.26,8.23a1.47,1.47,0,0,1-2,0c-.73.74,0,1,0,2-1.38.48-3.19.81-3.95,1.63a4.52,4.52,0,0,0,.62-.2c3.59-1.47,7.33-3.2,11.06-5.05a3,3,0,0,0-.27-1.48c2.23.51,1.65-3.73,3.52-4.71ZM54.83,43.61c-.23,0-.46,0-.7.06h0c.35.28.52.14.72-.07ZM50,46.28c.11-.61.87-.27,1.19,0a2.23,2.23,0,0,1,.38-1.57c-.09-.22-.36-.27-.65-.3l-.86.85a1.22,1.22,0,0,1-.06.63c-.21,0-.44.31,0,.39Zm12.1-6.71A67.45,67.45,0,0,1,69,38.26a6.66,6.66,0,0,0,2.82-3.61c-2-1.63-1.12.8-3.13.39,1.81-1.38-2.2.05-.79,1.18-2.13-.57-1.12,2-2.74,2-.11-.63.37-.67.39-1.17a39,39,0,0,0-3.4,2.57Zm-6.18,2.8a5,5,0,0,0,1.9-.85,8.89,8.89,0,0,1-1.93,0c1-.43,2.15-.82,3.33-1.19a19.45,19.45,0,0,1,3.14-2.6c-.45-.72-2.52,2.34-3.14.39-1.21,0,1.22,1.54,0,1.57-1.14-.2-.22-.74-1.56-1.17h-.11l-.21.18a1.38,1.38,0,0,0,.71,1c-.4.54-.65-.16-1.18.79-.64.14-.74-.27-.77-.75-.29.26-.6.49-.89.75.1.22.17.44.29.65a2.67,2.67,0,0,0-1.1,1.2,4.73,4.73,0,0,0,1,.06.51.51,0,0,1,.54-.07ZM35.31,61.47l-.25.32a1,1,0,0,1,0,.18c.29,0,.27-.22.2-.5Zm4.12,23.64c-.1,1-1.65,1.49-.79,2.35,1.47.46,2.92-2.52,2.35-1.56-1.23.44-1-.62-1.56-.79Zm3.14-.79c.86-.81-.35-1.26.39-2-.31-.08-.78,0-.79-.39.22,0,.45-.32,0-.39-.08.3-.32.45-.78.39.8,1.18.2,1.34,1.18,2.35ZM83,39.64l-1.81.87A2.25,2.25,0,0,0,83,39.64ZM39,78.83s0,0,0,0,0,0,0,0Zm.4-2.35a2.2,2.2,0,0,1-.38,2.35c1.52.41,1.55-2.33.38-2.35Zm-2.36,9c1.73-.75,2.19-1.78,3.53-1.18a2,2,0,0,1-1.17-1.17c.62,0,.31-1,1.17-.79-.54-1.09-1.44-2.87.39-3.14-1,.52.09,2.91.79,1.58-1.44-.26.31-1.79-1.18-2.36.17.63-1.43,1.3-1.56.41a4,4,0,0,0-.79,2c.62,0,1.36-.06,1.18.78-1.37,1-2,.73-.4,1.18-.63.93-1.4,1.73-2,2.74ZM91,25.23c-.54,1.3-2.81,2.92-2,4.32.67-1.17,2.36-3.38,2-4.32ZM249.19,208.45c-2.72-.28-1.33-2.93-2.36-4.31.57.09.67.65,1.18.79a2.44,2.44,0,0,0-2-2.36c.93-3.93.24-9,0-12.16-1.44,3.62.55,8.66-.39,11.77-.74,0-.27-1.3-1.18-1.18-.5,2.34,2.06,1.61,2,3.53-1.12,2.1,1,5.63,2.75,3.92Zm3.92-29.8c0-1.39,1.3.83,1.17-.39-1.54-.55-1.16-3-2.74-3.53,2.15-.4.23-2.25,0-3.53h1.18c-.34-1.35-.32-3.08-2.35-2.74.86,1.82.27,2.66,1.17,4.31-.95.4-1.73.52-2.35-.78a13.3,13.3,0,0,0,.78-6.67c-1.76,1.25-2.85,3.16-4.71,4.32,1.28,1.35,1.49-2.4,2.36-.39,0-1,.72-1.38,1.18-2,1.22,2.89-1.87,5.71,0,7.85-.63-1.09,1.69-1.09,1.57-.39-.6,1.52-2.5,2.65-1.18,3.92-.4,0-.47.31-.79.39-.85-.06-.84-1-.78-2-1.58.08-1.76-.1-.79-.79-1.23-.45-1,.62-1.57.79.49-1.54-1.37-2.11-1.56-.79,1.59.85.72,4.45,1.17,5.5.81-.51,1-1.63,2-2-.33,1.69-.27,1.24.79,2-1.49,1.65-.8,5.47-1.57,7.84,1.81-2.12,1.21-6.63,2.75-9,1,1,.56-.76,1.57-.79.15,1.16,1.71.9,2.35,1.57a13.71,13.71,0,0,0-2-3.92,2.25,2.25,0,0,0,1.57-.39c-.11.89.09,1.47.78,1.57Zm3.14-29c-.52-1-1.19.7-1.57-.39-.23-1.28.27-1.83.39-2.75-3.36,1.2-1.88,7.32-2,9.8a1.78,1.78,0,0,0,1.17-.39c-.08.74.45.86.4,1.57-.78.65-.5,0-1.57,0,.34,1,.39,2.66-1.18,2.74,0-.5.51-.54.4-1.17-2.55.81-1,4.55-1.18,7.06,1-.91,3,.27,3.53-.4-1.32.12-2.12-4.48-1.57-1.56h-.78a2.15,2.15,0,0,0-.4-1.57c1.09-.87,2-.75,3.53-.39-.61.58-.43,1.75.79,1.56-.33-1.1.55-1,.39-2-1.48-.22-2.14-1.26-2.74-2.35-.19-1.23,1-1.11,1.56-1.57.15-1.17-.89-3.28.39-3.92,1.45-.37.93,3.23,1.58,2.35.08-1.63-.64-1.85,0-3.14-1.28-1.66-.64-1.13-1.18-3.52Zm8.82,92.16.23.16V240.8c-1,1.26-1.93,2.5-2.93,3.73.69.09,1.42,1,1.92,1.18a3.81,3.81,0,0,1,1-1.32v-.69a.92.92,0,0,1-1-.34c-.29-1.07.78-.79.78-1.57ZM289.68,140c.08.47.17.94.25,1.42.91-.49,1.48-1.31,2.6-1.59-.31-.09-.46-.33-.4-.78-1.59-.68-2.47,2.91-2,.78a1.42,1.42,0,0,0-.49.17ZM278.41,52.88c-.73,1.89-1.87,3.36-2.36,5.49-1.73,0-3.47-.07-3.53,1.57a2.63,2.63,0,0,0,2.36,2,1.07,1.07,0,0,1-.79,1.18c1,1.88,3,.85,5.1.78a19,19,0,0,1-2.75,8.24c.18,1.56,2.87,2.14,1.57,3.92,1.48.29,3.15,1.15,1.57,2.35-3.84-2.46-3.43-6.77-7.06-9.41-1.26-.34-.81,1-1.56,1.18-1.2-.11-.86-1.75-2-2s-1.1,1-1.57,1.57c-4.95.26-4.38,6.06-6.85,8.82a128.6,128.6,0,0,1,28.73,59.34c4.78,0,11.47-1.71,15.78-.44,0,0-.47.64-.4.78a7.15,7.15,0,0,1,2.49-.68,59.71,59.71,0,0,1,15.7-2.46,162,162,0,0,0-41.54-83.53,6.85,6.85,0,0,0-1,1.69,2.62,2.62,0,0,0-2-.39Zm23.65,86.51c-3-.32-6.18-.83-9.14-.35.87.43,1.92.69,2,2,.62,0,1.49-.19,1.57.39.76-.68,1.26-1.61,3.13-1.18a.82.82,0,0,1,0,.26q1.22-.57,2.46-1.08Zm-4.64,2.16-.58-.16a.61.61,0,0,0,0,.5l.63-.34Zm-1.09.59a16.94,16.94,0,0,1-2.24-1.14c-.91.11-.91,1.06,0,1.17-.32,1.4-2.3,1.13-3.81,1.34.06.41.1.84.16,1.25a2.55,2.55,0,0,1,2.08-.32q1.88-1.23,3.81-2.3ZM286.25,63.86c-.19,1.24.86,1.54,0,2.36-.49-.68-1.32-1-1.17-2.36Zm-2.74,15.69c.89.81.57,2.83,2.35,2.75-.44,2.69-2.7,3.57-4.32,5.1-.06,1,.61,1.22,1.18,1.56-1.26.11-1.88,3.48-.39,3.93-.39,1.1-1.82,0-2-.4-1.16,1.44-1.85,4.29-4.71,3.54-2.11-1.68,2.44-4.28.78-6.67.59.23.49-1.58,1.19-2.75.94-.16.85.72,1.95.39,1.7,0,1.77-5.18-.39-3.53a5.16,5.16,0,0,0,.79-4.7c.63.8,2,.91,3.53.78ZM71.66,45c4.07-2.06,8.11-4.26,12-6.49a12.31,12.31,0,0,1,.7-1.46,2,2,0,0,1,.12,1c.8-.46,1.6-.92,2.38-1.39.4-.86,1.21-1.3,1-2.73-.58-.68-2,1.09-2,2.36-.89-1.68,1.39-2.27.4-5.5a1.66,1.66,0,0,0,.63,0l-.54-1C84.48,32,82.71,33.93,80,35c-.42,1.46,1.47.62,1.18,2-1.06.78-3.58.12-4.86.68l1.13,0c0,.32-.6.53-1.62.7a4.2,4.2,0,0,1-2.11,2.18c.44,1.12-.95,2.74-2.08,4.42ZM99.24,26c-.81-1.81.54-4-.79-4.71-.69,1.55,1,3.07-1.17,3.14a2.47,2.47,0,0,1,0,2c1.11.32,1-.55,2-.39ZM102,22.1c-.33,1.5-2,3.76-1.17,5.1.65-1.2,2.57-3.16,1.17-5.1Zm11-2.36c0-.24,0-.46.39-.39.51,0,.36.69.78.79,1-1.65,1.35-3.89,3.53-4.32-.73-.94.83-2.6-.79-3.14.65,1.59-1.73,4.45-3.13,3.93-.29,1.07.78.78.78,1.56-1.07,0-.78-.65-1.56,0,.53.9-1,1.48,0,1.57ZM98.06,27.59c-.43.51-2.11,1.76-.78,2.74-.06-1,1.73-2.14.78-2.74Zm17.26-12.16c.79-.77.87-2,.39-2.35-.09.61-1.51,1.82-.39,2.35ZM157.68,1.31a2.55,2.55,0,0,0-.31-1.22c-.78,0-1.57.07-2.35.11.3.56.29,1.43.69,1.89,1.21.29.76-1.07,2-.78ZM88.26,31.43c.55,1,1.15,1.94,1.81,2.94a1.81,1.81,0,0,1,1.32-.9c-.26-1.57-1.17-2.48-1.56-3.92-.78,0-.5,1.07-1.57.78,0,.38,0,.74,0,1.1Zm0-3.84c-.45.5-.87,1-1.28,1.48.19.38.4.76.61,1.15.4-.7.28-1.92.67-2.63Zm-8.63,9c.16-1-.72-.86-.39-2,1.8-1.73,5.3-1.76,5.09-5.5-1.23.45-1-.61-1.56-.78-1.2.69,1.06,1.21,0,1.57-.09-.44-.44-.61-.79-.79,0,1.64-.26.08-.78,0-.58,1.27-1,1.93-1.18.79-.8,1.32-1.55,1.63-1.18,2.75A4.12,4.12,0,0,0,76.1,37c1.29,0,2-.66,3.53-.39Zm10-1.7c-.44-.56-.84-1.16-1.24-1.76a5.57,5.57,0,0,1-.16,2.6l1.4-.84Zm166.62,81.38c-.1,2-1.28,6.7-.79,6.67.36-1.88,1.83-4.7.79-6.67Zm-2.35,23.14c1.31,1,.28,2.68.38,4.7.47.06,1.12-.06,1.18.4s.19,1,.39.39c.3-1.21-1.07-.75-.78-2,.91-1,1.05.61,2,.78-.82-1.69-1.4-2.82-.78-5.09-1.07.65-1.84-.63-2.35.78Zm.78-5.49c-.88,1.67.89,2.13,0,4.31,1.82.25,1-2.14,1.17-3.53-.77.12-.77-.53-1.17-.78Zm-10.59,71.77c-1,1.39-2.84.33-2.75.78.7.19-.16.42-.39.79,1.38.11-.71,1.74.39,1.57.47-.89,2.66-1.3,1.57.39a2.74,2.74,0,0,0,1.18-3.53Zm5.1-40.79c.28-.42,1.53-1.81.39-2.35.28,1-1.73,1.61-.39,2.35ZM241,216.3a1.89,1.89,0,0,1,1.18.39,1.1,1.1,0,0,1,.78-1.18c-.13-.91-.4-1.69-1.18-1.95-.9,1.65,1,1.65-.78,2.74Zm18-65.89c1.74-1.29.63-3,1.18-5.49-1.2.28-1.43-.4-2.35-.39.9,1.8-.82,3-.79,5.1,1.21-.3.48,1.35,2,.78Zm8.63,9.41c0-1-.14-2.24.39-2.74-.94-.16-.85.71-1.95.39a1.9,1.9,0,0,0-.4-1.18,3.28,3.28,0,0,1,2.35.4c.84-.92,1.11-2.4,1.93-3.31-2.73,1.68-6.51.56-9,1,1.3.53,1,2.7,1.57,3.92-1.41.55-2.95,1-3.53,2.36a23.26,23.26,0,0,0,3.93-2.36c2.17-.08,2.8,1.38,4.7,1.57Zm2.32-6.44a5.89,5.89,0,0,0,.82-.62,2.29,2.29,0,0,0-.82.62Zm-250.78,81c-.68-2-.53-1.13.4-2.74-.74-.18-2.37.53-2-.79a2.2,2.2,0,0,1,1.57.39c-.14-1.81-1.46-2.46-1.17-4.71H16c.41,1.69.22,1.52-.4,2.75,2.85-.51.41,2.38,2.36,3.14a11.26,11.26,0,0,0-1.16,2.33l.4.8c1.23-.32-.31-2.3,1.93-1.17Zm197.92,91.38h.83a9.63,9.63,0,0,1,.7-3.48,2.75,2.75,0,0,0-1.18-.78c-.71.82-.37,2.7-.35,4.26ZM228,287c0,.78-1.07.49-.78,1.56,1.41-.16,3-.09,3.53-1.17-1,0-2.24.15-2.75-.39Zm17.26-3.14c.07.46-.07,1.11.4,1.17-.18-1.09,2.13.31,1.95-.78-1.19.28-1.15-.68-2.35-.39Zm-.39,4.31a13.15,13.15,0,0,1-2.35.79c.06.46-.07,1.11.39,1.17.54-1.45,2,.42,2.35-1.17-.3-.09-.45-.33-.39-.79ZM244.5,285c-.05-.64-2.7-.64-2.75,0,.24,0,.46.06.39.4s.06.46.4.39c.07-1.34,3.13-.19,2-.79Zm3.13,5.5c.9-.29,3.07.7,2.75-.79,0-.32-2.78-.19-2.75.79Zm-1.74,11.71.58-.34-1.19-.39a4.53,4.53,0,0,0,.61.73ZM6.22,137.47h6.67c-.36,3.12-1.93,4.77-2.75,8.23,1.21.3.76-1.07,2-.78.18.83-.57.75-1.18.78,1.36.47,1.14,2.52,2,3.54,1.71,0,3.53.12,4.7-.4-2.12-.58-1.29-1.77-.78-3.53-.89-.68-1.52-1.62-3.14-1.57-.49-3.49,3.46-2.56,2.75-6.27h9.81c.1,1.33.62,2.25.38,3.92-4.57,1-4.32,5.42-1.95,7.45,1.3-.65,2.21.38,3.92.4.32-.08.39-.4.78-.4.56-1.74-1.33-1-1.18-2.35,2.64.56,2.83-.72,2.75-2,1.14.42,2.32.82,2.75,2,.16.94-.72.85-.4,2-2.69-.22-2.75,2.22-2.74,4.7-.95-.16-.85.72-2,.4-.79-.78.12-1.87.39-2.75-1.24-.19-1.39.71-2.74.4a2.55,2.55,0,0,1-.4,2c.23,1.3,1.48.57,2.35.4.25,1.51.33,1.61-.39,2.74,2.91-.63,1.91-5.15,5.89-4.7a4.86,4.86,0,0,0,.26.76c.05-.63.08-1.27.14-1.9a1.59,1.59,0,0,1-.4,0c0-.56.06-1.11-.4-1.17a1.63,1.63,0,0,1,1-1c.34-3.06.8-6.07,1.34-9.06a6.82,6.82,0,0,1-7.86-.55c2.23-1,5.12-1.26,8.18-1.25A128.62,128.62,0,0,1,62.56,81.05a4.41,4.41,0,0,0,0-2.61,17.91,17.91,0,0,1,3.55-1.57l.94-1a3.08,3.08,0,0,0-.37-.8,5.33,5.33,0,0,0,.54.62,129.71,129.71,0,0,1,26-21.94c.3-.22.67-.35.49-1a2.22,2.22,0,0,0,.66.3A128.25,128.25,0,0,1,138.85,35.7c-2.52,2.66,2.84,6.5,1.57,10.71,2.53-.31,3.71.74,4.31,2.35,1.27.49.3-1.26,1.57-.78a9.71,9.71,0,0,0,1.57,1.57c-.31,1.65.23,4.15-1.57,4.31-.61-.16-.33-1.23-1.57-.78-1.58,1.42-2.94,3.08-5.1,3.92-.28,2.77,1,4,1.18,6.28,1.84-.4,2.23.64,3.14,1.17,0-1.66,2.8-.48,3.53-.39.49-5.06,1.54-8.8,4.31-10.59.12-1.23-1.13,1-1.18-.39-.54-2,1.81-1.08,1.57-2.74-.93-1.36-2.44-.64-3.52-1.18,1-1.65,1.88-3.35,3.92-3.92.92.65.94,2.18,2.74,2,.77-.55,1.21-1.41,2.36-1.57.54.5.16,1.92,1.17,2,.23-1,2.54.18,2.35-1.18-.72-.71-2.81-.07-3.13-1.17.41-1.26-.47-2.24,1.18-2.75-1.23.18-1.11-1-1.57-1.57-2.22.75-4.16.78-5.5-.78,1.85-.32,2.34-3,1.57-4.71h-1.56a2.19,2.19,0,0,0-.9-1.42c3.73-.32,7.49-.51,11.31-.51A128.51,128.51,0,0,1,213,43.74a9.67,9.67,0,0,0,2,2.67c2.64-.29,4.48.22,4.7,2.35,1,.33,2.15-1.18,2.75,0,.26,3.08-3.47,3.58-5.49,3.14-1.34,3-5.24,6.05-8.63,3.53-.93,1.22.62,2.58,1.57,3.14.4-.91,1.8-.81,3.14-.78-.62,1.79,1.62.72,1.57,2-1.13.32-2.09.8-3.14,1.18-.59-.71-1.69-.92-2.36-1.57-1.05,1.24-.36,1.92-1.17,3.53,1.05.65,1.5,1.9,2.74,2.36,5.68-.86,3.21-9.86,9.42-10.2.46-.58.33-1.75,1.56-1.57s.77,1.85,2,2c.75-.15.3-1.52,1.56-1.18,3.63,2.65,3.22,7,7.06,9.42,1.58-1.2-.1-2.07-1.57-2.35,1.3-1.79-1.39-2.37-1.57-3.93A22.4,22.4,0,0,0,231,53.14a129.52,129.52,0,0,1,25.67,21.09c.66.51,1.59.75,2.13,1.4,1.05-.38,2-.86,3.14-1.18.06-1.23-2.19-.16-1.57-2-1.34,0-2.74-.12-3.14.79-1-.57-2.5-1.92-1.57-3.14,3.39,2.52,7.28-.57,8.63-3.53,2,.44,5.75-.06,5.49-3.14-.6-1.19-1.72.33-2.75,0-.22-2.13-2.06-2.64-4.7-2.35-1.49-1.13-1.87-3.37-3.53-4.31a6.84,6.84,0,0,0-.79-4.32c1.86.18.58-.34.79-1.57a5.55,5.55,0,0,0,2.74,1.18c-1.53,1.53.43,4.6,1.57,5.88,1.25.34,1.21-.62,2-.78a5.29,5.29,0,0,0-2.74-3.53c.48-1.09,2.41-.73,3.92-.79,0,1.61,1.56,1.57,1.17,3.53,1.24.19,1.54-.56,2.36-.78,0-1-.15-2.24.39-2.75,2.49-.13,2.29,2.42,5.49,1.57.69-1.82,3.81-2.22,5.08-3.52-.21-.22-.41-.45-.62-.66a.7.7,0,0,1-.54.26,2.11,2.11,0,0,1-1.83-2.63A162,162,0,0,0,165,.06s.06.07.12.07c-.21.31-.66.21-1.08-.09-.48,0-1,0-1.45,0l-1.43,0c-.33.38-.57.72-.36.9-.13.55-.69,0-.78-.39a.39.39,0,0,0,0,.78c-.39,1.21-1.06-.44-1.18-.78-.95.85-.1,3.21.4,3.92-.83,1.17-1.43-1.17-1.18-2.36-1.1.08-1.67.69-1.57,2-.69-1.23-1.86-2-1.95-3.83-1.43.07-2.86.16-4.28.26-.73,1.64-2,3.38-2.79,5.14-.67-1.73,1.58-1.86,1.18-3.92a1,1,0,0,0-.41-1.06q-3.47.3-6.9.74c.21,1.94.54,3.62,1.42,4.63-1.76.42-2.48-2.56-2.35-4.49-1.25.17-2.5.34-3.75.54a10.14,10.14,0,0,1,1,.82c-2.46,2,.82,6.06-1.17,8.63-1.81-.34-.05-1.52-2-.79.51-1-.88-1.9,0-2s.48.29.39.79c.78,0,.5-1.08,1.57-.79-.79-2.56.13-4.42-1.18-6.27-.57.47-.59,1.49-1.18,2,.26.4.9.4.79,1.17-.69-.33-1.36-1.46-1.18.39a2,2,0,0,1-1.18-1.17c-.87.06.51,1,0,2-1.26.35-.55-1.28-1.17-1.57-.35.24-.7.48-.79,0-2.37,2.44.87,5.86-2,5.88,0,1.05,1.24.85,1.18,2a9,9,0,0,1,1.57-1.57c.69-.11.72,2.34,1.17,1.17-.19,1.1-3.1,2.26-2.35,4.71-1.26.34-.81-1-1.57-1.18.6,1.09-.94.73-.78,3.14-2.46-.61-2.23-4.72-.39-6.67-.07-.46-.72-.33-1.18-.39.17-3.31,3.24-1.38,3.14-4.71-1.5-.57-.08,1.76-1.57,1.18C129.16,8,126.35,5,129,5.23c.12-1-1.42-.36-1.18-1.49l-.69.15c-2,4.49-.76,10.94-4.4,14.28,1,.79-.25,2.44.33,3a2.63,2.63,0,0,0,.45.17.69.69,0,0,1-.45-.17c-2.54-1.2,1-5.73,1.24-8.46-1.42-.37-.4,1.69-1.18,2-1.43-2-1.51,2.52-3.14,2.75-.26-1.47,2.93-3.67.4-2.75,2.44-1.26,1.35-3.93,2-5.88-2.26,0-2.38,3.75-3.93,3.14,1.13,1.37.3,1.4-.38,2.74.06.38.68.48,1,.29a1.76,1.76,0,0,1,.17-.29.33.33,0,0,1-.17.29c-.47.88-1.62,3.66-1,5.21a5.68,5.68,0,0,1-.79-3.53c-1.92,1-.5,2.06-.78,4.7-.78-1.54-.91.47-2.75,0-.74.68-.32,2.19-.78,3.92-1.31-.13-.62-2.26-.79-3.53-.26.65-2.71,3.84-1.57,4.32-2.28,2.16-3,5.83-3.92,9.41,0-5.22,2.35-11.5,5.49-14.9-.16-3.59.23-5.25-1.18-8.63-2.35,1.82-2.54,5.83-3.92,8.63-1.22-1.26.85-2.54.39-4.32-1.8,1-1.77,2.61-3.92,4.71.92,5.62-5.35,7.8-4.31,13.73-.6-.55-1.12-2-.39-2.75-2.17.7-1.16,2.64-.4,4.32-1.72-1.76-.87.69-2,.78V35C95.16,41.41,90,44,90.61,52.29c-2.12-1.85,1.12-3.83-.39-6.66-4.15,2.59-3.55,7.52-5.89,11.76-.49-2,2.62-5.47,1.18-7.45,2.58-4.48,7.68-6.44,9.41-11.77-.39-.74-1.58,1-2.35,1.18V42.1c-3.43-3.4,2.89-3.47,2.74-7.06-2.68-1.12,2.67-7,.79-11-.49.1-.4.78,0,.78-2.18-1.29-3.21,3.32-5.49,4.31,1.62-.77,0,1.91,1.57,4.71a7,7,0,0,0-1.27,1c.69-.17.91-.83,1.86-.75,0,1-1.47.63-2,1.18a2,2,0,0,0,.5,1.46l.08-.15a.9.9,0,0,1,0,.19c.63.78,1.44,1.37.64,2.42a18,18,0,0,0-1-1.58c-.75,1.55-2.39,4.2-2.79,5a1.2,1.2,0,0,0,0,.2c-.16.14-.15,0,0-.2-.42-2.32,1.3-2.51,1.2-4.51A1.18,1.18,0,0,0,91,37.53a3.92,3.92,0,0,1-.55-1.45l-1.57.75c-.07.06-.12.12-.19.17.27,1.79-.62,1.81-.4.12l-4.37,2.09c-1.21,1.56-3.82,2.77-3.07,4.85-2.69.27-4.59,2.23-3.93,4.7-1-.31-.55-2.07-1.17-2.74-1.09.22-2.2.42-2,2-.85,0-.84-1-.78-2,1.87.41,2.15-1.6,3.14,0,.68-.36,1.36-.73,1.17-2,1.89.76,2.7-1.73,3.45-3.34l-9.21,4.45a9.15,9.15,0,0,0-.9,1.63c-.4,1,.86,2.76-1.18,2.75.21-1.31.94-2.59,1-3.89q-6,2.9-12,5.71a1.34,1.34,0,0,0,0,.53c-.19,0-.27-.19-.32-.37l-3,1.42a1.8,1.8,0,0,1,.64-1.14,2.27,2.27,0,0,0-.06-.3.27.27,0,0,0-.25,0,2.13,2.13,0,0,0-.14.35c0-.15,0-.28.14-.35.77-2.21,3.9-2.1,6.53-2.79-.17-.74-1.12-.71-.79-2a2.46,2.46,0,0,1,2.75,0c-.26-2.44,2.25-5.3,2.35-7.45l.11,0c-2.15.42-4.19,1.21-6.2,1.75a15.72,15.72,0,0,1-3.4,2,1.47,1.47,0,0,0,.67.47c-1.07.89-3.64.29-3.53,2.36-.7-.1-.79-.8-1.33-1.07,0,0,0,0,0,0-.12.48.18,1.11,0,1.57-.92,2.46-1.16,2.18-1,.94-.63.55-1.28.83-.76,1.28-.22,1.14-.61-.6-1.17-.39-.61,2-1.5,2.92-1.85,5.38A2,2,0,0,0,49,52.29c.59.9-.15,1.54-1.31,1.85,0,.25,0,.49-.07.77a8.06,8.06,0,0,1,3.54-1.18c-1,1.71-4.32,1.18-5.5,2.75,0,1.72.12,4.84-2,6.28.53,1.2,1.74-.74,2.36.38-.13,2.58.69,3,.78,5.5a7.92,7.92,0,0,0-1.57,2c1.88-1.64,1.15,1-.78.78-.11.63.37.68.39,1.18,1.53.09.72-2.16,2.35-2,.61,2-3.5,4-.78,4.31-.51.93-2.12.76-3.14,1.18.16,1.34,2.15-.59,2,.39-.81,1.65-.27,1-.39,2.74-.45-.07-.22-.39,0-.39-.7-1.12-1.1,1.47,0,1.57-.1.92-1.72.23-2,0,1.22,1.27-.38,2.89,1.57,2.75A9,9,0,0,0,43,84.72c.39.54.64-.17,1.17.78,0,.76-1.46-.61-2,.4.26.39.91.4.79,1.17a2.74,2.74,0,0,0-.79,1.18c-1.18-1-1.75-.51-3.53-.4a1.74,1.74,0,0,0,1.57.79c-1.8,1.07-.58,2.69-2.74,2.35.17-.57.34,0,.78,0-.48-1.42-.8-1.51-2.35-1.18.36-1.6,2-1.07,2.35,0,.58-.77-.83-2.07-1.57-2.74-.31.08-.39.39-.78.39-.32.44-.38,5.21-2.75,3.53-.07-1.78,1.75-1.65,2.36-2.74-.08-.32-.4-.4-.4-.79-1.49-.57-.07,1.75-1.57,1.18,0-1.6,1.66-2.91,0-3.92.1-.57,2,.36,1.57,1.56a3.56,3.56,0,0,0,1.57-2c-2.84-.43-1-1.44-3.53-1.17-.52-.83.2-1.16-.39-2.35.32.07.39.39.78.39-.29-1-.58-1.81.4-2.36-.27-.77-1-1-2-1.17-.22.48-5.4,3.57-5.49-1.18,4.47-1.74,5.57-2.89,8.62-5.1-1.15-.79-.56-3.14.4-3.53-.07-.46-.72-.33-1.18-.39,0-.64.65-1.71,0-.79-.79-2,1.31-1,3.14-.78.23-1.2-3.87-1.93-1.57-1.57-.08-.31-.4-.39-.39-.78-1.47-.42-.63,1.47-2,1.18.44-.13,1.11-2.08.58-1.72a161.94,161.94,0,0,0-24.5,44.47h0a161.47,161.47,0,0,0-7.71,30.1,5.92,5.92,0,0,1-.37,2.65c-.18,1.29-.35,2.6-.5,3.91,2.81-.1,6.86-2.44,5.18-6.66ZM155.71,17.78a2,2,0,0,0-.39,1.18c-.67-.51-1.54-.81-1.57-2,.75.16.71,1.12,2,.78ZM147.87,8a1.78,1.78,0,0,0-.39,1.17c.35-.17.7-.34.78-.78.86-.89-.11,1.89-1.57,1.18-.11-1,.15-1.69,1.18-1.57ZM144,10.72c-.57-1.74-1-1.49-1.57-3.53,1,.67,2.23,2.49,1.57,3.53Zm1,24a14.34,14.34,0,0,1-2.57.72.87.87,0,0,1-.46-.26c1-.16,2-.32,3-.46Zm-4.14-10.26c0,2.6-1.43,3.86-.39.78a2.2,2.2,0,0,1-.4-1.57c-.62.11-.67-.37-1.17-.39.44-.91,1.55.77,2,1.18Zm-3.14-3.92c.62.17.34,1.23,1.57.78-1.09.43-4.33-.11-3.13,2-.67,1.37-1-.77-.79-1.57a7.39,7.39,0,0,0,2.35-1.17Zm-1.56-4.71c-.1.43-.79.26-.79.79.22.88.61-.48,1.18.39v1.17c-1.19-.24-2.42-3.3-.39-2.35Zm-9.42,4.71a1.89,1.89,0,0,1-.39-1.18c1.52,1,1.19,3.35,0,4.31-1.45-.81-.26-2.27.39-3.13Zm-2.35,11.76c1.26.35-.14,3.42-2,3.14.39-1.31,2.39-1,2-3.14ZM121.2,26c1.73-.19-.08-1.49.79-2.36a2.19,2.19,0,0,0,1.56.4v1.57c-.72.31-1.58.5-2,1.17-.29,1.21,1.08.76.79,2-.52-.39-.77-1.06-1.57-1.17A2.18,2.18,0,0,0,121.2,26Zm.79,9c-.14,1.09-1.18,2.31-2,1.57A3.54,3.54,0,0,1,122,35Zm-2.36-17.26c.63.83.47,3.34-.39,3.14-.28-1.46.67-1.68.39-3.14Zm-1.17,3.53a4.06,4.06,0,0,1,.39,3.14c-.85-1.05-.53-1.78-.39-3.14Zm-4.71,7.84c.22.77-3.69,1.93-2,4.32-1.65.6-.06-2-1.18-2,1.21-1,1.92-2.35,3.14-2.36Zm-7.06,8.63c-.46,1.07-.19,1,0,2.36-1.86.15-.4,1.59-2,2.35.16.76,1.52.31,1.17,1.57a2.2,2.2,0,0,1-1.57.39c-.51-.83.2-1.16-.39-2.35,2.46,0,1.53-9,2.75-4.32Zm-11,6.15c-.18-.27-.37-.53-.57-.79a5.53,5.53,0,0,1,.74.48c.63-1,1.72-1.89,2.2-2.7-.17-.61-1.23-.34-.78-1.57,1.26-.34.81,1,1.57,1.18a18,18,0,0,0-2.16,3.85c1.26,1.33,2.09,3.1,3.53,4.25-1.73-.23-2.69-1.81-3.77-3.54a9.91,9.91,0,0,0-.35,4.46c-2.14,0-.22-2.11,0-3.14a1.92,1.92,0,0,1-.41-2.48ZM86.3,42.49c.33-1.24.51.69.39,1.18.06.46.71.33,1.17.39-1.25,1.12-1,2.35-3.14,3.14a11.31,11.31,0,0,0,1.58-4.71Zm-2,4.31c-1.09,1.86-4.26,3.5-3.14,6.28-1.49-.52.09-6.55,3.14-6.28ZM78.45,59.74c2,1.65,3.7-.06,4.32-2,.56,3.21-3.78,4.1-5.5,5.49.12-1.68,2-2.07,1.18-3.54Zm-5.09-11c.91,1.46-2.43,2-2.36,3.93-1-1.57,1.42-3,2.36-3.93ZM70.61,66.81c.9.17,2.53,1.62,3.53.39,1.45,2.54-3.56-.38-3.14,1.18-.63-.39-.9-1-.39-1.57ZM69,54.65c.7.6-.79,2.32-1.57,2.74-.29-1.72,1.27-1.6,1.57-2.74Zm-11,19.61c1-.8-.45,1.24-.39,2-.28-.31-2.19-.87-2.36,0-.84-1.72,2.56-.1,2.75-2ZM56.1,55c.71,1.26-2.56,1.88-2.75,3.53-.69-2.07,1.44-2.25,2.75-3.53Zm-19,39.09v1.18c-.91-.8-.9.16-.39.78-.65.61-1.89-2.17.39-2ZM35.9,100c-1-1.4,2.05-2.11-.39-2.75,2.45.3,2.28-2.13,4.7-2.74-2.71,2.33,3.67-.82,1.18,1.57,1.76.46.42-2.19,2.35-1.57a6,6,0,0,1-1.18,3.14c-.51-.14-.61-.69-1.17-.79,0,.56-.07,1.12.39,1.18-.25.4-.9.41-.79,1.18-1.06.28.29-1.85-.78-1.57-1,.71.5,3.07-1.57,3.14,1.08.36,1.15,1.72,1.57,2.74,1.15-.33-.51-1,0-2,.7,1,.5.43,2,.39-.49.53-1.18.77-.39,1.57.69-.36.87-1.22.78-2.35.71,0,.83-.48,1.57-.39-1.82.92.09,1.11-1.17,2,.22.88.61-.48,1.17.39,1-.46-1.86,1-2.74.39-.53.13-.33,1-.4,1.57-1-1.38-.42.41-2-.39.78,1.24.31,2,1.18,3.53h-2c1.12-1.58-1.2-.61-1.18-2.75,1.14-.38,1.31.14.79-1.56,1.62,1,.57-.65,1.57-1.58-.08-.31-.4-.38-.4-.78a9.11,9.11,0,0,1-2,2c-1.77-.66,2.26-1.58,0-1.57.4-1,.65-2.23,2-2.35.45-1.7-1.36-2.06,0-2.36-.07-.31-.39-.39-.39-.78-.35,1.66-1.69,1.19-2.35,3.14.1.49.78.39.78,0,1.26,1.52-.68.86-2,.78,0-.38.48-.3.79-.39Zm-3.14-5.88c.42,1-1.69,1.37-.39,2-.17.58-.5-.16-1.18,0,0-1.15.14-2.21,1.57-2Zm-5.49-4.32c-1.26.35-.81-1-1.57-1.17.46-1,2.08,0,1.57,1.17Zm-7.84-2c.14.67-.31.74-.79.79a1.07,1.07,0,0,1,0,1.57c-.52.6-.11-1.08-.39-2.36ZM249.58,223.36c.13-.53.56-.75.39-1.57-.53-.13-.75-.56-1.57-.39-.34,1.26,1.29.54,1.18,1.57-.22,0-.45.31,0,.39ZM40.73,225.71c.31.09.46.33.4.78,1,.07,1.23-.6,1.57-1.17-1.48-1.95-3.92.88-5.5,0,.32,1,1.8,2.88,2.75,2-1.15-.45.65-1.12.78-1.57Zm181.81,92.61c2.76,0,5.61.13,7.45-.78-2.83-.52-5.44-.43-7.45.78Zm-181-69.86a2.47,2.47,0,0,1-2,0c.67,1-.45,1.37.39,2,.09-.31,0-.77.39-.78s.36.68.79.78c-.33-1.11.55-1,.39-2ZM22.3,219c.13-.53.56-.74.4-1.56-.62-.65-1.84-.17-2.36.39,1.05,0,.85,1.24,2,1.17Zm8.24,8.63A1.48,1.48,0,0,0,29,229.24c.67-.15,1,.58,1.18,0-.24,0-.47-.06-.4-.39,0-.62,1-.31.79-1.18ZM20,193.94c0-.61,1-.3.78-1.17-.89-.41-1.39-1.23-2.74-1.18a1.08,1.08,0,0,1-.79,1.18,1.08,1.08,0,0,1-.78-1.18c-1,0-2,.07-2,1.18.74.17,2.36-.54,2,.78,1.6-1.11,1.85-.19,3.53.39ZM265.3,251.78l-.62-.18c.5-3.25-2.48-3-4.71-3.53a2.73,2.73,0,0,1,3.14-1.18c.25-1.26-.67-1.34-1.28-1.73q-1.59,1.91-3.24,3.75c0,.36,0,.71,0,1l-.28-.1a.38.38,0,0,0,.06-.21,3.39,3.39,0,0,0-.39-.08l-.11.11c-5.1-2.18-9.61-6.32-15.38-5.52.56,1.28,1.21.65,2,1.17a7.31,7.31,0,0,0-2.35,1.18c.25.66,1.18.64,1.57,1.17-.83.52-1.16-.19-2.36.4-.43-1.13-.72-2.41-2-2.75-.39.52-.36,1.46-1.17,1.57-.94-1.06,1.42-3.16.39-4.32-.69-1.19-1.22,1.08-1.57,0,.68-.23,0-1.86.78-2,.53,1.31,1.68,2,2,3.54,1.23.44.95-.62,1.56-.79-.64,1.52-1,2.56.39,3.53a27.35,27.35,0,0,0,.4-7.06,2.23,2.23,0,0,0,1.57-.39c-.9-1.35-.28-1.79-1.18-3.14,1.71-.15,1,2.12,2.35,2.36.63-1.33-1.66-1.68-.39-2.36.4.3,1.46,1.88,2,.79-1.18-1.14-1.84-2.46-1.57-3.53.7,1.19,2.41.52,1.57,1.56H248c1.07-1.06-1-1-.78-2.35,1.57.79,1-.93,2-.79-.92-.2-.24-1.85.39-.78.25-1.69-1.64-1.23-1.57-2.74,2-.3,1.26-.62.39-1.57,1-1,1.91.09,2.36.78-.07-1.11,1.32-.76.78-2.35-1.76,1.07-3,.29-4.71,1.17-.33-2.46.6-2.87-.78-5.09.93-.7,1.11-3.61,2.75-2.36.37-.73-1.18-1.31,0-1.56,1.17,2,1.37-.29,3.13.78.1-1.4-2.21-.4-2-2,.42-1.11,1.56-.49.79-2-1.26-.35-.82,1-1.57,1.17-.91-1,.72-4.08-1.57-3.13a1.07,1.07,0,0,0,0-1.57c.82.21,1.47.69,2-.39-1.65.47-1.72-.64-2.75-.79-.06.59.14,1.45-.39,1.57a3.33,3.33,0,0,1,.39-2.35,3.75,3.75,0,0,0-1.17,5.49c1.12-.61-.82-1.84.39-2.36a5.32,5.32,0,0,1,.78,4.71c-1.58.14-.6-2.27-2.35-2-.54,1.71.75,3.08-1.17,2.35.37,1.13,1.12,1.85,1.17,2.54.22-.41,1.81-.35,1.57.21-.94.7-.36,1.76-1.57.39.26,1.61,3,3,1.18,4.31-1.26.34-.81-1-1.57-1.17.49,2.91-2.49.2-2.75,2,.91.78.44-.1,1.18-.39.23.68-.47,2.3.39,2.35.25-1,1.84-.06,2,.39-1.1.33-1-.55-2-.39-.38,1.16-3.52,2.49-1.57,3.53-.06-1.37,1.38-1.24,2-2-.25,2.85,2.83,2.39,2.74,5.1-1.56-.67-1.43-3-3.53-3.14.26,2.22-.81,3.12-1.57,4.31-2.35-2.65,1.41-9.08-1.17-11.76.11-.8.78-1,1.17-1.57-3,.45-.24-5.32-1.17-4.71-1.48,1.79-.29,4.42-.4,6.28-1.24.33-1.23,1.9-3.13,1.57a1.83,1.83,0,0,1,.39-1.18c-1.41.43-2,1.66-2.36,3.14.59.07,1.45-.14,1.57.39a64.26,64.26,0,0,1-7.84,3.14c1.18-.4.69.87.78,1.56,1.68,0,1.54,1.87,3.54,1.58.44,1.47-.38,1.78.78,2.35.57-2.18,1.69.93,2,1.57,1-.53.24-.78.78-1.18,0,.4.32.47.4.79-.8.89-2.48.92-3.54,1.57-2.23-2.11-8.42-3.1-11.37-.79.46.06,1.11-.07,1.18.39-1.14.35-1.35.5-2-.39-.3,1.49-1,3-2.75,2-.91.52-.18,2.7-1.57,2.74.24,1.89,1.93,3.23.4,4.72,2.84.61,1.53,3.76,3.92,3.52-1.95.95,1.32,3,1.18,4.71A31.81,31.81,0,0,1,228,256.7c.87-.71,1.19-1.95,2.74-2,.5.32,2.47,2.34,2.36.78.28-1.07-1.85.28-1.57-.78,1.5-.2,1-2.4,3.13-2-.12,1.31,0,2.42.79,2.75-.66.15-1.31,2.3-.39,2.74.21-1,.17-1.79,2-2,.26-1.43-.85-1.5-.78-2.74.59.06,1.44-.14,1.56.39-1,.8.17,3.55-.78,5.89-.65-.66.25-2.87-1.18-2.75-.51,2.32,1.7,3,.4,5.1-.05-.48-.12-.93-.79-.79.31,1-1.53,1.8-.39,2.35a2.84,2.84,0,0,1,.78-1.17,9.58,9.58,0,0,0,0,3.92c-.77-.11-.78.53-1.18.79-.8-.12-.78-1.06-1.17-1.58-2.43-.07-1.89,2.83-3.53,3.54-1.75-1.07-3.89,2.38-5.1-1.18-1.94-.24-2.51.89-3.92,1.18-2.12-.62-3.84-1.65-5.88-2.36-1.1,1.2-3.71.9-5.38,1.53a12,12,0,0,0,4.21.09c-1.21.86-2.72.69-4.55.51-1.35,3.71-5.41,4.7-9.13,6a6.58,6.58,0,0,1,3.88,1.69c-.29,1.72-3.46-.89-3.14,2a.5.5,0,0,0-.4-.31,20.54,20.54,0,0,1,0,2.22c1.68.41,3.12,1.06,2.74,3.53a2.54,2.54,0,0,1,1.89.29c-2.65.92-5.32,1.79-8.05,2.55a1.29,1.29,0,0,1-.43,1.31c0,.06-.07.13-.11.18,1.6.31,2.29-1.58,4.93-.8-.82.72-1.13,1.35-2.35.78-.48,1.27,1.27.3.79,1.57a3.69,3.69,0,0,1-3.7-1.18,5.6,5.6,0,0,0-.4.45c.36,1.47,1.65,2,3.53,2,.67.38-3.24.91-3.53.39-1.78,1-2.44,3.06-2.75,5.49-2-.62-5.79-.57-7.06,1.57,1.37.93,1.56,1.52,1.18,3.53-1,.16-.86-.72-2-.39-.19-.84.56-.75,1.17-.78-.69-.62-2.09-.53-1.57-2.36a2.52,2.52,0,0,1-2,.39,5.77,5.77,0,0,1,0,3.14c-.92,0-1.74-3.23-2-.39-2.09-.22,1.41-1.85-.78-2a1.83,1.83,0,0,0,.39-1.18c2.45.36,3.6-.58,5.49-.78-.58-1.58-1.64.35-2-.4-.62-1.79,1.63-.72,1.57-2,.15-1.32-1.74-.61-1.18-2.35-1,.46-1.31,1.56-2.74,1.57-.11,1.55,1.67,1.2,1.56,2.74-2.17-2.08-1.89,1.55-4.31.79.13-2.09,1.9-2.55,2.36-4.32-1-.52-.25-.78-.79-1.17a15.29,15.29,0,0,1-2.75.79c-.36-1.42,1.55-.56,2.36-.79a2.61,2.61,0,0,0-.39-2c-.47.06-.34.71-.4,1.18-.63-.4-1.47-.57-1.81-1.25a130,130,0,0,1-15,.9,128.58,128.58,0,0,1-60.42-15,2.26,2.26,0,0,1-2.39-1.31l-1.4-.8a2.67,2.67,0,0,1-1.82-1l-2-1.24c-.49.35-.8.87-1.64.87-.93.87.49-.87,1.17-.79-.48-1.24-1.14-.07-2-1.17a2,2,0,0,1,.28-.29c-3.27-2.13-6.45-4.4-9.51-6.81-.06.14-.11.29-.18.43a1.81,1.81,0,0,0-1.18-.39c-1.59,1,.38,1.64,0,3.53-.92,0-1.15.67-2.35.39.16-.95-.72-.86-.39-2-1-.3-1.84,1.5-1.18,1.57,0,.92-1.07-.15-.78-.79-.93.25-1.83.53-2,1.57H72.11c.48-.72,1.06-4.6-.78-3.14.86-1.15.51-1.48,1.17-3.13,1.69.91,1.23-.74,2.75,0a7.53,7.53,0,0,0-1.57,2c1.33.15,3.18-.69,4.71,0-.26-1-2.44-1-1.18-2.36.67,1.33,1.8.63,2.39-.33l-.73-.63c-.31.44-.31,1.18-1.27,1-.79-.5,0-1.18.41-1.7-1.63-1.43-3.24-2.89-4.8-4.39-1.08.53-1.52,1.71-2.67,2.17a1.12,1.12,0,0,0-.78-2c.45-.86.8-1.67,1.13-2.45l-1.14-1.21a2.33,2.33,0,0,0,0,.91c-3.87-1.32-4,3.5-5.1,5.1-.17,1.09,1.46.37,1.57,1.18.93-2.19,2.31.37,4.31-1.18,0,1.49-1,1.85-2.35,2-.1,1.87-1.2,2.73-1.57,4.32H65.05c.58-.87,0-2.92,1.18-3.14-.08-.31-.39-.39-.39-.79-2.56.59-3.63,2.65-4.32,5.1-.7-.28-.06-.71,0-1.17a2.77,2.77,0,0,0-1.18-.79c3.37-1.19,2.92-7,5.5-9.8-.44-1.49-1.56.14-2-1.18-.15-1.32,1.74-.61,1.18-2.35-2.83,1.12-4.57,3.19-7.45,2.35-1-.3-1.21-1.24-3.53-.39.08,1.14,1.54,2,.79,2.74,2.45-.88,1,1.94,3.92.79,0,1.44-2.3.58-2,2.35-.68-.5-1.54-.81-1.57-2a1.42,1.42,0,0,0-2,1.18c-2.31-1.45-3.39-1-5.48-.39.05-.71-.48-.83-.4-1.57,1.71.49,2.74-.54,2.75-2.75,2.51,1.13,2.8-1.4,4.31-2.35-.37-1.35-1.33-2.53,0-3.53-1.46-.42-.62,1.47-2,1.18-.14.66.31.74.78.78-.27,1.41-1.83.55-2.35,0a1.76,1.76,0,0,0,.39-2.35c.82,1.64,1.08-.42,2,.39a1.87,1.87,0,0,1,2-1.57c-2.65-.94.4-4.11-2.75-2.35.5,1.09,1,1.93.39,3.14-2.66-.62.52-2.39-2.35-1.57.84-1,.91-2.75,2-3.53.63-.11.68.37,1.18.39.08-1.14.69-.94,1.57-2-2.47.09-3.28,1.74-5.1,1.57.09-.69.67-.9,1.57-.79-1.18.13-3.74-2-5.49-.78-.65-.66.24-2.87-1.18-2.74.75-1.4,1.5-.76,2.75-1.18-.46-1,1.2-1.69-.4-1.57a17.86,17.86,0,0,1,3.14-2.35c-.7-.62-2.09-.53-1.57-2.36-.9.78-.43-.1-1.17-.39a14.68,14.68,0,0,1,3.53-.79l-1-1.83c-2.12-.07-3.79.83-3.67,2.62-.06.46-.71.33-1.17.39,1,1.06.5,1.51,1.57,2.74-1,0-2.31.23-2.35-.78-2.06,1.1-1.26,2.85-2.36,5.1,1.05.66,1,2.38,3.14,2-.45.5-2.13,1.33,0,1.18-1.82,1.27-.69,2.62-.39,4.71-2.28-1-2.4,1.49-3.92,2.35,0,1.13.49,1.86,2,1.57a2.69,2.69,0,0,0-1.18-.78c.74-.58,2.1-.3,2.36-2,.81-.23,1.33,1.73,1.56.79.84,1-1.61.1-2.35,1.18.47.51.15.61,0,1.17.91,1,1.75.56,3.13.39-.23.35-.47.7,0,.79-.9.25-2,.33-2.34,2-1.66-.49-2.25.06-3.14,1.17-.25,1.56,1.49,1.13,1.17,2.75,1.38-.18,1.67-.83,1.18-2,1.67,1.17,1.66,0,3.53-.4-1.8.42-1.3,3.15-3.53,3.14v2a22.53,22.53,0,0,1,5.88,0,7.18,7.18,0,0,1,.39,3.14c-.8.5-2,.62-2,2-4.83-.25-2.38,6.78-5.5,8.24-.94-.49-1.27-1.61-1.57-2.75,1.88-1.93.91-3.82,0-5.88.25-1.59,1.67-2,2.36-3.13-.16-1.16-1.34-1.28-2-2,.72-1.2-.36-1.76.39-2.75.12-.9-1.13-.43-1.18-1.17a1.06,1.06,0,0,0-1.17.79c-.62,1.16-.29-1.29.39-1.18-.05-1-1.31-.78-2.36-.79-.25-.85,1.12-1.24-.39-1.17.34-1.15,1,.5,2,0-.12-1.44-1.55-1.59-1.17-3.53a1.07,1.07,0,0,0-1.18.78c-1-.27.73-1,.39-2,1.11-.33,1,.55,2,.4-.21.79-1.18.76-.39,1.56a4.44,4.44,0,0,0,2.35-2.74c-.16-.46-2.55.62-2-1.57-1.36.32-.63,1.76-2,.39a3.47,3.47,0,0,0-1.17,3.53c-1.36-.31-1.73.36-2,1.18.07.31.39.38.39.78,1.54,0,1.2-1.7,2.74-.78-.72,1.17-1.2,1.1-1.17,2.35-.12-.46-.53-1.38-1.18,0,.18,1.23,2.56,1.56,1.18,3.13-1.37-2.42-2.25,2.35-4.32.4a2.62,2.62,0,0,1,.39-2c-.07-.32-.39-.4-.39-.79-1,0-.85,1.24-2,1.18.4-1.18-.87-.69-1.57-.79.21-1.33,1.89-.59,2.75-.39.43-.09.27-.78.78-.78-1.53-1.54-2.1.34-3.92-.39.39-.64,1.05-.91,1.57-.4-.24-2.37-2.6-2.63-2.74-5.09,1,1.3,2.85-.59,3.52,1.18a1.77,1.77,0,0,0,.79-1.58c1.9.8-1,1.62-.39,3.53.59-.84,1.41-1.85,1.17.4,2.81-.33,2.89-3.39,4.71-4.71-.24-1.61-1.64-.23-1.57-1.57,1.55-.51.8,1.29,2.35.79a3.6,3.6,0,0,0-1.56-2c1.55.66,2.63-3.45,4.31-.78-1.23.2-1.6-.93-2,.39.48,1.2,1.35-.42,2.35,0-.47.52-.15.62,0,1.18.88-.56,2.59-.3,2.75-1.57-1.23.38-1.81-2.68-1.57-4.31-1.76-.39-1.19-1.07-1.57-2.36-1.44,0-1.5,1.38-2.36,2a4,4,0,0,1-2.35-2c-1-.12.37,2.2-1.17,1.57-.33-1.11.55-1,.39-2-1.44-.92-2.59-.49-4.71-1.18-1.27,1.1,1.08,4-.39,5.1a1.74,1.74,0,0,0,1.57.79c-.18,1.13-1.39,1.22-1.18,2.74-.8-1.31-1.9.75-.78,1.18-.7.48-2.9-.26-2.75,2-1-.93-1.14-1.56-.39-3.14,2.68.38,2.53-.55,2.74-2A7.31,7.31,0,0,0,25.83,241c.45-1-.12-5.68,1.18-7.85-1.37-1.7-3.15-6.26-2-7-.05-1.26-.89-1.73-2.35-1.58A14.74,14.74,0,0,1,27.4,223c-.15,1-1.26,1.09-.79,2.74-.16,1.1,1.47-1,1.57.4-.09-.58-.29-1.89,1.57-.79v-1.57c-1.25-.23-1.21.74-2,0,1.62-1.48.06-3.3,2.75-4.71a7.21,7.21,0,0,1,2.35,1.18c1-.19,1.32-2.16,2.36-1.18.57,1.49-1.08.76-.79,2,.09,1.22,1.95.65,1.57-.79.59,0,2.23,1.53,2,0,.67.5,1.54.81,1.57,2,.87-.31,1-1.37,1.57-2,.37.67,1.3.79,1.57,1.57.85.06.17-1.39.39-2-.06-.46-.72-.33-1.18-.4.4-2.45,2.38,1.19,2.75-1.56.87-.22.56.75,1.17.78a1,1,0,0,0,.22-.48c-.18-.36-.33-.72-.5-1.08-1.46.26-3.29,1.15-4.42.78-2.15-3.23-7-.35-9-3.14-1.17,0-1.34,1-2.36,1.18-.68-.37-2.1,0-2-1.18,2.69.07,4.46-.77,7.06-.79.07-.45-.08-.69-.39-.78.71-.73,2.27,1.46,3.53.4-.35-1-2.19-.43-2-2,2.47.76,5.15,4.27,7.89,1.88-1.14-2.67-2.19-5.4-3.16-8.16-.54.78-1.06,1.58-1.59,2.36-2.32-.91-2.05-2.31-2.75-5.1-2.52-.82-1.29,2.1-3.14,2a1.88,1.88,0,0,1,1.18-2.35c-1.08-1.64-3.91-1.15-4.71.39-1,0-.78-1.31-.78-2.35-1,.92-2.67.06-3.92,0,.65-1.57,1.81-2.64,2.35-4.32,1.55,0,1.9,1.25,2.35,2.36H28.19c1.14.47,2.18,2.53,3.52,1.57a1.07,1.07,0,0,0-1.17-.79c.59-.46,1-1.13,2-1.17.2.58.58,1,.78,1.56a12.05,12.05,0,0,1,4.66-3.22c-.17-.65-.36-1.3-.52-2l-.22.07a3,3,0,0,1,.07-.74c-.3-1.19-.57-2.39-.83-3.6a3.49,3.49,0,0,0-.41.82,9.85,9.85,0,0,1-3.92-.4c-.73,1.29,1.61,1.86,1.17,3.14,1.37-.31,1.51.58,2.75.39-2.44,2.15-4.92,1.42-8.24.79,0-2,.58-2.58,0-4.32,1.2-.56,2.67-.4,3.14.79,1.11-2.16,3.85-2.69,4.32-5.49.12,0,.21-.06.33-.09-.35-1.94-.65-3.88-.91-5.85a29.66,29.66,0,0,1-2.17-2.69c-1.64.26,0,2.28-.79,2.74-1,.05-1.21.74-2,0,.23.69-.47,2.31.4,2.36a5.83,5.83,0,0,1-3.92,1.17c.08-1.91-1.78-1.88-2.75-2.74.8-1.56,1.06-3.64,2-5.1,3.17.56,4.3-.92,5.88-2-1.18,1.87.72,2.2,2.75,2a1.89,1.89,0,0,0,.22,1.3c-.39-3.59-.62-7.22-.71-10.89-.32.89-1.31,1.1-2.65,1A2.89,2.89,0,0,1,33.55,165c0-.79,0-1.56,0-2.35,0-.25,0-.5,0-.74-1.11.38-1.73,1.25-3,1.49-1.31-.65-1.86-2.07-4.31-1.57-.28-2,1.44-1.95,1.56-3.53-1.74-.3-3.41,2.86-5.09,3.93.69.79,1.44.11.78,1.56.84.19.75-.55.78-1.17,2.77,1.43,2.85,5.84-1.17,6.27.6.94,1.84,2.06,0,2.36,1.63,1.9,3.74-.79,3.92-2.75,1.92-.48,1.52,1.35,3.14,1.18A6.27,6.27,0,0,1,29,173.55c-1.84-.14-4.75-1.07-5.88.39-1.62.31-.74-1.88-2.36-1.57-.1-1.4,1.18-1.43,1.18-2.74-2.42-.47-5.95-.37-7.06,1.17.21.58.58,1,.78,1.57,1.56-1.18,2.36,1.13,4.32.78-.13,1.57.55,2.34,2,2.36-.58,2.36-3.89,1.05-5.49,1.57-.28,1.07,1.85-.28,1.57.78-.08,1.71-.69.71-2,.79-.76,1,.59,1.61-.4,2.35.1.69.68.89,1.57.79-1,2.29-3.77,2.76-3.92,5.88,1.52,1.8,5.38,2.61,6.67.39-.07,1.24-.28,2.34-1.57,2.35,2.22,2,6.19.6,5.88-1.57-.34-1.16-.58.92-1.56.4-.35-.83-1.2-1.16-1.18-2.36a6.89,6.89,0,0,0,2.35-2c2.09,1,.67,3.57,2,4.32-.76.93-1.88,1.51-2.35,2.74.18,1.26,1.49,1.39,1.57,2.75a17.73,17.73,0,0,0-1.57,2c-3.14-.73-3.05.61-5.1-.4.13,1.44,1.56,1.59,1.18,3.54-3,1.73-.57,3.81-1.57,6.66a6.17,6.17,0,0,0-3.14-.78A3.32,3.32,0,0,0,12.11,203c-1.48-.31-.28,2.08-2,1.56a1.47,1.47,0,0,1,0-2,29.05,29.05,0,0,1-5.93-3c.35,1.49.72,3,1.1,4.45a3.88,3.88,0,0,1,.52.17c.16.41-.14,1.26,0,1.69a.31.31,0,0,0,0,.08.33.33,0,0,0,.38.19l-.26.26q1.1,3.93,2.38,7.78c1.85-.65,4.36-.63,5.33-2.16,1.48.67,1.91.35,3.14.79-1,2.95-4.7,3.14-6.27,5.49.38,1,1.62-.11,2,0,.12,0-.13,1.12,0,1.17,3.3,1.33,5.79-4,8.23-5.09-.91,1.7.91-.55,2.36,0-1,1.75,1.83,2.87,3.92,3.53.12,3-2.55,3.2-4.31,4.31-.81-.12-.77-1.06-1.58-1.17-.74.56-1.72,2.08-1.17,2.74.84.18.74-.56.78-1.18,1.93.33-1,3.07,2,2.36-1.34.36.24,1.72-.79,2.74a17.15,17.15,0,0,0,3.14,2c-1.23,1.56.19,2.45,0,5.1-1.67-.36-2,.64-2.35,1.57-.95.16-.86-.72-2-.39.17-1.27,1.32-1.56,2-2.35-.76-.56-.72-1.91-1.18-2.75-.58.34-1.24.59-1.18,1.57.39,1.1,1.05-.57,1.57.39-1.86.34-1.47,3.55-3.92,2.75a36.66,36.66,0,0,0,2.35,3.14c-.2.55-.38,1.11-.62,1.63.62,1.14,1.26,2.27,1.91,3.4a3.78,3.78,0,0,0,.67-.33,1.37,1.37,0,0,1-.15,1.21q1,1.63,2,3.24a3.88,3.88,0,0,0,.95-.52c0,.58-.31.8-.63,1,.38.62.76,1.23,1.15,1.84a1.56,1.56,0,0,1,1,1.43l-.13,0a164.19,164.19,0,0,0,18.06,22.85c.22-.56.47-1.08.9-2,1.11.59,1,2.44,1.57,3.53a1.86,1.86,0,0,0-1,0c1,1,2,2.05,3.05,3.06.58-.65,1.16-1.12,1.13-1.85.74-1,1.37.36,2.35-.39-.11,1.68,1.85,1.29,2,2.74,1.42,0,1.9-1,3.14-1.17a20.23,20.23,0,0,0-.78,3.52c.91-.12,1.69-.4,2-1.17,1.25,1.79-.82,3.61-2,4.31a1.21,1.21,0,0,1,.4,1.49A162.77,162.77,0,0,0,206,319.33a5.64,5.64,0,0,1-2.3,2.47,4.31,4.31,0,0,1,1.24,1.24,1.61,1.61,0,0,0-.05-.4c.92.26,1.06,1.3,2,1.56a3.17,3.17,0,0,0,2.74-3.52c.76-.41,2.93.61,2.36-2,.57-.21,2,.46,2-.39,1.21.62-.67,1.37-1.17,1.57,2.56,1.13,3.94.61,7.06,1.18-.16,1.72-.21,2.88-.3,4.65H230c.37-.94,1.58-1,1.18-2.74-.62,0-1.36,0-1.18-.79,4.59.14,6.79-2.36,9.81-2.74a1.87,1.87,0,0,1-.59-.95c-2.17.1-4.34.19-6.46.21-4,.05-9-.88-11.37,2.75.76-.88.34-2.95,0-3.92,2-.28,3.37-2.05,6.27-.79a28.34,28.34,0,0,1,10.67-2.29,2,2,0,0,1-.09-.5c1.66-1.37.84-3.54,2-5.89-1.51.49-3.5.68-4.49-.2,3.11-1.57,6.15-3.27,9.14-5a33.47,33.47,0,0,0-4.24-2.17c-1.62-.67-4.44-1.2-5.1-3.53,3.57,2.54,7.24,3.22,11.58,4.35q2.5-1.53,4.95-3.13a4.78,4.78,0,0,1-.84-3.57c1.35-.18,5.21-.57,4.31.39,1.21.29.75-1.07,2-.78l.17.12c1.14-.82,2.26-1.68,3.38-2.54.1-.91,1.51-.52,1.55-1.5H263c.89-.7,1.76-1.44,2.64-2.15a8.52,8.52,0,0,0-3.88.59c-.25-2.09,1.63-2.05,2-3.53,1.4.58,3.69.16,3.53-2H270a1.08,1.08,0,0,1-1.17.78c.05.41.63.44,1.2.43a164.11,164.11,0,0,0,17-17.37.94.94,0,0,1-1.17-1.15,2.56,2.56,0,0,1,2-.4,1.25,1.25,0,0,1,.07.52c1.29-1.56,2.55-3.15,3.78-4.75a1.53,1.53,0,0,0-.71-.08.83.83,0,0,1,1-.31q3.24-4.23,6.19-8.68H280.51a2.19,2.19,0,0,0-.14,1.93,2.1,2.1,0,0,1-1.88-1.93H265.3v-.63Zm-22.39-12.73c-.07.44-.39.21-.39,0-.7-.05-.83.48-1.57.39v-1.57c.82.23,1.27.83,2,1.18Zm-1.57-2.75c.08.32.39.39.39.79-.2.6-.4,0-.39-.39-.38,0-.3.47-.39.78-.35-.24-.7-.48-.78,0-1.06-.35.18-1.59,1.17-1.18Zm-2,1.57c1.79.2-.25,1.79.79,2.74-.32-.27-1.08-.6-1.18,0-1.18-1,1.66-1.34.39-2.74Zm-21.18,7.06c-.06-.46.09-.7.4-.78-.17-.59-.51.15-1.18,0-.61-1.4,1.33-.24,1.18-1.18.64-.07.79,2.56-.4,2Zm20-8.23v-.79c1.18.83-.7,1.89-1.57,2,.59-.5.7-2.08,1.57-1.17ZM45.83,239.83c1.11.33,1-.55,2-.39.61,1.19-2.55.81-.4,1.17-.89.61-.74.82-.39,2-1.56.26-1.12-1.48-1.18-2.74Zm3.92,8.63c-.75.81-.74,2.39-2.74,2a5,5,0,0,1,2.74-2ZM36,237.09c0,.77-1.07.49-.78,1.57-.76-.17-1.69-.15-1.57-1.18,1-.39.83-.13,2.35-.39Zm-2,7.84c0,1.1-1,1.13-2,1.18-.15-.67.3-.74.78-.79-.28-.85.4-2.5.39-.78.14.61.69-.35.79.39Zm-.79-8.63c.07,1.62-1.3,1.19-.39,2.75-.7,0-.83-.48-1.57-.39.11-.78.7-2-.39-2.36.49-1.19,1.35.42,2.35,0ZM29,243.75c0,1-1.32.78-2.36.79-.37-1.42,1.55-.55,2.36-.79Zm10.59-26.27c-.65.77,0,.49,0,1.56-1.21.3-.76-1.07-2-.78.33-.58,1.26-.57,2-.78Zm-22-37.66a2.56,2.56,0,0,1,2-.39c.84,2.28-2.49,2.72-2,.39Zm-1.17,8.24c-2.35-3.22,3.13-4.88,4.31-2.35-.5,1.71-2.22,2.22-4.31,2.35ZM10.54,212a1.79,1.79,0,0,1-.4-1.17,2.55,2.55,0,0,1,2-.39c.26,1.31-.66,1.43-1.57,1.56ZM18,210c-1.79-.48-1.54,1.08-3.14.79.77-1.85,2.75-2.48,4.31-3.53A14.12,14.12,0,0,0,18,210ZM29.36,203a2.52,2.52,0,0,1,2,.39c0,1.16-2.34,1-2-.39Zm-3.92,10.19c-.87.17-2.13.9-2.35-.39-.43.1-.27.78-.79.79-1-.14-1.32-1-1.57-2a27.15,27.15,0,0,1,3.14-1.17c.2.58.58,1,.79,1.56,1.38-.31,1.82-1.58,3.52-1.56-1.13-1,1.77-2.74.79-3.54.48-.95,1.08,1.24,1.57,1.57,1.15.11,1.2-.88,2.35-.78,0-.7-.48-.83-.39-1.57a15,15,0,0,1,2.75.78c-2.85,1.87-5.93,3.49-7.07,7.06-.89-.28-3.06.71-2.74-.78Zm-1.57,27.45a1.47,1.47,0,0,1-1.57-1.56c1.23-.19,1.75.34,1.57,1.56ZM38,253.16c-.33,1.41.88,1.9,0,2.75-.74-.44-.83-1.52-1.57-2a1.74,1.74,0,0,1,1.57-.79Zm2,6.68c-1.61.47-1.89,2.29-3.53,2.74s-2.37-2.31-3.14-1.57c-.63-.53,1.35-1.77,1.57-2.75,1.71.52,2.19.22,3.53-.39-.47.52-.15.62,0,1.18a1.73,1.73,0,0,0,1.57-.79c.45.08.22.4,0,.4.95,1.23,1,.87,1.57,2.35-1.26.34-.54-1.29-1.57-1.17Zm31.38,3.91A9.09,9.09,0,0,0,69,263c.62-1.23,2.11-.43,2.36.78Zm-3.14,1.18a2.57,2.57,0,0,1-.4,2c-2-1.32-1,1.24-2.74,1.18-.2-1.24-1.15-1.72-1.18-3.14,1.91,1,2.44,1.13,4.32,0Zm-5.1,1.57c-.05,1-.08,2-1.18,2,0-.78,1.07-.5.79-1.57-1.23-.18-1.6.49-2,1.18-.85.07-.18-1.39-.4-2,1.11.62,1.67-.45,2.75.39Zm-3.92-9c.75,1.54,2,.27,2.74,2-1.08-.06-3.28-.6-3.53,2-1.12.19.92-2.57.79-3.92ZM48.19,272c.12-.92,1.85-.23,1.56-1.57.64-.11.68.37,1.18.39.34.08.37-.15.39-.39.77-.06-1,2.19,1.18,1.57-.73,2.91-2.44.19-4.31,0Zm3.53-3.92c.24-2.11,2.38-2.32,2.74-4.32.7,2.09,1.31.3,2.75,0-.78,1.41.18,2.1,0,3.93-1.46,1.82-3.14.61-5.49.39Zm1.17,5.49c.35-.72,2.57-.92.79-1.57.06-1,1.33-.11,1.57,0a2,2,0,0,1-2.36,1.57Zm2.36-2c0-1.19,2-.38,2-1.57,1,.62-1.15,2.69-2,1.57Zm4.31,8.24c-.44.61-.3-1.84-.39-3.54-.88-1.17-1.81,0-2.75-.78-.31-1.36.59-1.5.4-2.74,1.86-.17,1.48,1.91,3.92,1.17,1.21,0-1.79-1.67.39-1.57A2.81,2.81,0,0,0,60,271.6c1.18-.45,1-1.69,2.75-2.35-1.16,1.78-.75,2.69-1.18,5.09,1.92,1.09,5.12.32,5.49-1.56,1.07-.29-.28,1.84.78,1.56-2.17,3.27-6.69,1.91-8.23,5.5Zm9,.78c-.56,0-1.11-.07-1.17.39-1.58-1,1.51-2.62,1.17-.39Zm-1.17-10.2c.74-.92,1.06-.7,2.74-1.17.25,1.56-1.49,1.12-2.74,1.17Zm3.13,10.2a1.08,1.08,0,0,1,0-1.57c.43.09.27.78.79.79.33.07.37-.16.39-.4.83.12-.41,1.36-1.18,1.18Zm1.18-3.14c-.84-1.47.75-1.18.39-3.14.86-.35.6,2.65,1.57.4,1.07-.29-.28,1.85.78,1.56-.35.95-1.57,1-2.74,1.18Zm5.49-6.27c.88,1,2-.56,2.75.39-.79.41-3,1.4-2.75-.39Zm9,1.17c-.42-.36-.12-1.44-1.18-1.17.17-.75.85-1,.79-2h2.35c-.12.91-.84,1.68.39,2-.68.5-1,1.32-2.35,1.17ZM178.61,305c.59-.91,1-.59,2-.38v1.17h-1.18a1.84,1.84,0,0,0,.4-1.17,1.89,1.89,0,0,1-1.18.38Zm2.35,5.11c-.53-.12-.32-1-.39-1.57,1,0,1.21-.74,2,0,.29,1.33-1.45.65-1.57,1.57Zm81.76-60.85c.88.17-.06,2.15,1.18,2-.11.81-1.47.37-1.57,1.18A1,1,0,0,1,262,252a1.33,1.33,0,0,0,.15-.35.69.69,0,0,1-.25-.19,5.82,5.82,0,0,1,.84-2.17Zm-2.35.79c.17.19.29.4.43.59-.16,0-.34-.07-.5-.12a2.42,2.42,0,0,1,.07-.47Zm-6.46,15c.81.11.78,1,1.18,1.57,1.33-.74-.68-1.37-.39-2.35,1.16.53,1.71,1.68,2.35,2.74,0,1.67-3.5-.09-3.53,1.57-.84-1.11,1.62-1.63.39-3.53Zm3.92,16.87c1.46-.16,1,1.59,2.75,1.17-.8.94-2.92,2.09-4.32,1.18a2.78,2.78,0,0,1,1.57-2.35ZM240.18,274c0-1.16,0-2.39,1.18-2.35.26,1.44-.85,1.51-.78,2.74.44-.21,2-.12.78,1.57,1.2-.24,1.87-4.4,3.14-5.88,1.62.3-1.18,2.3-.79,3.92.88-.43,1.07-1.55,2-2,1.77,3.92-5,6.77-9.42,5.1,1.1-1.26,1.83-2.87,3.92-3.14Zm-.78-2.74c-.46,1.24-1.8,1.6-2,3.13a2.23,2.23,0,0,0-1.57-.39c.65-.78,0-.49,0-1.57,2,.39,1.92-1.21,3.53-1.17Zm-4.72-2.41c.38,0,.3-.48.39-.78a1.89,1.89,0,0,0,1.18.39c0,.05,0,.07,0,.11-.52.36-1,.72-1.55,1.07a10,10,0,0,1-.43-1.57c.39,0,.31.48.4.78Zm-13.71,4c1.45-.4,2.74-2.55,4.31-1.57-1.4.66-1,2.85-.78,3.92-1.53.37-4.5-.88-7.85-.79-.05-.7.48-.82.39-1.56,2,.66,3-2,3.93,0Zm-15.3,4.7c.07-.45-.09-.69-.39-.78-.28-1.07,1.85.28,1.57-.79.55.94-.3,1.33-1.18,2-.45-.08-.22-.4,0-.4Zm7.24,19.17c-1.2.28-1.15-.68-2.35-.39-.4,1.31,1.22.61,2,.78-.28,1.41-1.84.55-2.35,0-.6.34.1.59-.4,1.57a22.6,22.6,0,0,0-2.74-1.18c1.56-.75-.05-2.35,2-2.35-.17-.61-1.24-.34-.79-1.57-1.35.31-1.65-.43-2.35-.78.19-1.06.87-1.63,1.13-2.62l.3-.1c.48.08.68.44,1.32.37.34-1-.6-.79-1.3-.78a.74.74,0,0,1-.25,0,1.43,1.43,0,0,1,.66-.55,1.87,1.87,0,0,0,.29.2,1.8,1.8,0,0,0,.17-.34,2.21,2.21,0,0,1,.37,0,1.7,1.7,0,0,0-.14.77c.31.08.78,0,.78.39h.11c.45,1.12,1.14,2.14.09,2.74.81.1,3.34,2,5.49.78.29,2-2.63.77-2,3.14Zm1.78-23.48c-.38,0-.31.48-.39.78a3.19,3.19,0,0,1-.79-2.35c1.07-.28.8.78,1.58.78s.82-.47,1.56-.39c-.26.89-1.44,1.71-2,1.18Zm5.1,45.1c-.93-.11,0-4.31,0-5.09,1.21,1.36-.43,3.21,0,5.09Zm1.57,5.88c.16-.94-.72-.85-.39-2,1.24-.58,1.88,2.26.39,2ZM219,300.67c-1.11-1.1-1.32-2.94-1.57-3.92.52-1.06,2.9-.24,3.14-1.57-.17-.58-.5.16-1.17,0,.16-.94-.72-.85-.4-2,.71,0,.83-.48,1.57-.39,1.39,2.33.19,4.29,1.18,6.27-.7.74-2.41.47-2.75,1.57Zm-.38-16.86c-.22,1.39,1.38,1,1.17,2.35-1.86-.23-1.43-2.75-3.92-2.35-.49-1.27,1.27-.3.78-1.57,1.4,1.63,5.1-.72,6.28,1.57-1.34-.68-2.3.3-4.31,0Zm5.09,5.1c-1-.23-.87-1.48-1.17-2.36,1.4-.22,1.19,1.17,1.17,2.36Zm27.07,1.17c.79,2.09,5.23.52,7,1.57-10,.35-23.26-1.13-34.9-1.57,0-.86,1-.84,2-.78-1.93-1.15,1.88-1.22,1.17-3.53.91-.4,2.15,1.65,2-.39,1.93.69,3.51,1.72,5.5,2.35-.39-3.12,3.62-3.17,5.09-5.49.12-1-.54-1.29-1.56-1.18-1.38-.41,2.5-.81,2.35,0-.05-.86,1.16-.28,1.8-1.6a.33.33,0,0,1,.16-.36,1.5,1.5,0,0,1-.16.36c.13.88,2.5,2.66,2.91,1.6.53.12.32,1,.39,1.57,2.64-.48,3.78,3.39,8.23,2.35.11.64-.37.68-.39,1.18.82-.16,1,.27,1.57.39-1.61-3.19,5.09.15,6.67-2,.37.67,1.3.79,1.57,1.57-.95,5-7.15,1.66-11.37,3.92Zm6.27-8.62c.48-1.88,2.79-1.92,3.92-3.14.52.56.27,2.07,2.75,2.35-2.47,1.5-4.92-.46-6.67.79Zm4.1-22.8c-.66-.37-.65-1.4-1.88-1.19l.36-.45a2.32,2.32,0,0,1,1.52-.32,4.42,4.42,0,0,1-.61-.85,16.4,16.4,0,0,0,1.2-1.9,2.62,2.62,0,0,1-1.18-.77,5.39,5.39,0,0,0-.12-1.07c.51.28.61,1,1.3,1,.45-1.14-1.88-1.45-.79-2,.19,0,.36.32.54.58,1.09,2.31,1.13,4.85,3.58,6.48-2.12-.11-2.46-.46-3.92.4Zm5.31,22c.34-1.15,1,.51,2,0,0,2-1.61.85-2,0Zm2.75-2.35c-1.07,0-.79.65-1.57,0-.75-.28.42-.61.39,0,.4-.26.41-.9,1.18-.79,0,.71.48.83.39,1.57-1,0-.48-.29-.39-.78Zm-2.57-13.78v-2c1,.59,1.8,1.11,3.14.39,0,1.53-1.71,1.43-3.14,1.57Zm6.28,7.84h-1.18c.51-1.69-1.87-.48-1.57-2,2-.39,1.08,1.83,2.75.79v1.17Zm-2.75-13.72c.75.76,3,1.45,2,2.74a8.2,8.2,0,0,0-4.31-3.14c-.16-.93,1.79.22,1.17-1.17a2.76,2.76,0,0,1,.79,1.17c.32-.34,1.07-.23,1.17-.78-1.19-.37-1.48-1.66-1.56-3.14,1,.35.42,2.19,2,2,.72-.06.24-1.32.78-1.56,1.22.63,1.53.33,2.36.78-1.36,1.13-2.19,2.78-4.32,3.14Zm3.14,6.66c-.29-1.2.67-1.15.39-2.35h2c.23.82,1,1.12.78,2.35-1.72-.77-1.79-1.51-3.13,0Zm2.74-6.27c.34-.81,2.73-.42,3.14,0-.36,1.53-2.46.47-3.14,0Zm6.28,7.84a3.82,3.82,0,0,1,3.14,0c-.1.72-3.25,1.57-3.14,0Zm5.1-2.35c-1.07.29-.79-.78-1.57-.79-.19-1.23,1.05-1,1.18-2,.52.4.76,1.06,1.56,1.18.07,1-.6,1.23-1.17,1.57ZM291,256.3c.46.07.33.72.39,1.18-1.11-.33-1,.55-2,.39-.38-1.42,1.76-.33,1.57-1.57ZM40.34,232c.3-1.27,1.95-1.18,2.75-2-.82-.21-.83-.61-.39-1.17-1.52.16-1.4.43-2.36-.39,0,.72-2,1.32-.78,2,1.5-1.43-.05,1.61.78,1.56Zm20.79,14.13c-1,.11-1.69-.15-1.57-1.18-.81.23-2.58-.48-2.74.39.15,1.31,3.26,1.68,4.31.79Zm-3.53-3.93c.74-.09.86.45,1.57.39.13-1.08-1-2.9-1.57-2,1.18.26-.38.84,0,1.57Zm.78,2c.58.92,3,.44,2.36-1.18-1,.2-2.37,0-2.36,1.18Zm-1.17-6.28c-1.15,1.34-3.2,4,0,4.7-1-1.33,1-3.55,0-4.7Zm8.09,9.54-.49-.57a2.05,2.05,0,0,0-.15.83,4.54,4.54,0,0,1,.64-.26ZM54.21,232.7c-.72,1.4-3,2.77-4.06,3.21.57.34,1.24.59,1.17,1.57,1.44.29,2.18-1,3.14,0,.69-1.47-.16-3.07.35-3.84l-.6-.94Zm-2.49-3.07c-.11.61-.86.27-1.18,0,.16,1,1.22,1.14,2,1.57.12-.77-.53-.78-.78-1.18.61,0,.27-1.13,0-.39Zm8.62,11.74s0,0,0,0h0l0,0Zm1.18,9.83c.14-.91.25-1.83,1.57-1.56a1.79,1.79,0,0,0-.39-1.18h-.79c.37,1.52-2.46,1.84-.39,2.74Zm128.86,39.67c-.37-.77-1.09-1.18-1.55-1.85l-.16,0a.53.53,0,0,1-.46.09c-.82.16-1.67.28-2.5.44,0,0,0,.06,0,.1a.6.6,0,0,1-.08-.08l-.61.11a3,3,0,0,0,3.43.76,2.22,2.22,0,0,0-.39,1.57c1.3.12.43-1.93,2.36-1.18ZM56.05,51.62a6,6,0,0,1,2-.67,6,6,0,0,0,0-.61c-1.15-.05-2,.23-2,1.28ZM189.86,288.78l-.69.17a1.31,1.31,0,0,0,0,.35.71.71,0,0,0,.66-.52ZM67.8,251.2a.59.59,0,0,0,.66-.3c-.2-.22-.41-.43-.62-.65a.85.85,0,0,0,0,.95Zm3.53,5.1c.78,0,.73-.89.92-1.51-.36-.36-.74-.71-1.11-1.08a2.12,2.12,0,0,0-.6,1.41.4.4,0,0,0,.79,0c.58.18-.16.51,0,1.18ZM189.2,293.62h2c.49-1.56-1.58-2.58-2-2,1.15.33-.24,1.26,0,2Zm-6.88-3.44-.71.11a3.35,3.35,0,0,1,.53.19,2.64,2.64,0,0,0,.18-.3ZM53.68,278.66c-1.32.69-3.14-.86-3.93.78a1.74,1.74,0,0,0,1.57.79,1.44,1.44,0,0,1-.47.48q1.62,1.53,3.29,3a9.51,9.51,0,0,1-2-3.51c1.26.61,1.72.13,1.57-1.57Zm-7.07-53a2.57,2.57,0,0,0-.38-2c-1.39-.07-2.15,1.66-3.14.78.48,2.53.8,1.38.39,3.93,1.23-.45,1,.61,1.57.78,0-.78,1.07-.5.78-1.57-.46-.06-1.11.07-1.17-.39,1.43-.73.82-.46.39-2,.53.12.75.56,1.56.39Zm8.86,59.2.64.57a8.12,8.12,0,0,1,.71-1.73c-1-.14-1.11.57-1.35,1.16ZM11.81,223.53c.18.45.36.9.54,1.33a2.24,2.24,0,0,0,.93-1.5,1.46,1.46,0,0,0-1.47.17ZM2.69,187.67a2.09,2.09,0,0,0-.87-.67c.18,1.22.38,2.43.59,3.64a6.07,6.07,0,0,0,.68.17c-.07-1.84-1-1.3-.4-3.14ZM1.2,182.42c.06.51.12,1,.19,1.52.1-.27.21-.52.52-.59a8.15,8.15,0,0,0-.71-.93ZM18.77,219c-2.23.2-4.45-.48-4.7,2.36,1.73.79,3.69-1.17,4.7-2.36Zm-2.76,14a2.86,2.86,0,0,1,.8-1.85,4.17,4.17,0,0,0-1.46.43l.66,1.42Zm200.25,90c-2.77.16-3.74.09-5.49,1.57,2.77-.32,4.93,1.63,5.49-1.57ZM17.59,158.65c.44-1.27,2.05-1.36,2.36-2.75-.53-.12-.75-.56-1.57-.39-.22.85-1.72,2.43-.79,3.14Zm-4.31,67.46c.59.13.08.42,0,.95a.88.88,0,0,0,.09.2c.72-.14,1.59-.16,1.47-1.15-.89.53-1.47-1-1.57,0Zm3.53-59.62c-.4-2.56-2.13-1.5-4.7-1.57-1.07-.9-1.27-2.66-2.75-3.14-1.18,1.53,1.8,2.45.39,4.32,3,0,4.91-.8,7.06.39ZM7.4,173.55c-1.17-.51-.66-1.63.39-2-.47-.57-1.56-.53-1.57-1.57-1.51-.43-1.39,1.39-2.35.39-.42-2,1.16-2,1.57-3.14-.13-.92-1.86-.23-1.57-1.57-1.65.25-2.62,1.17-3.79,1.88,0,.53,0,1.06.06,1.59a3.38,3.38,0,0,1,1.77-.72c1.38.67-.92.86-1.18,1.18-.07.85.32,1.24,1.18,1.17a3.82,3.82,0,0,1-1.66.92c.06.93.11,1.86.18,2.78a1.25,1.25,0,0,1,.69.62.84.84,0,0,1-.55,1.09c0,.45.08.9.12,1.34a2.74,2.74,0,0,1,.43-.08c.77.73.12,1.44,0,2.35,4.18.77,4.74-3.68,6.28-6.27Zm26.14-12.82c0-.94,0-1.88.07-2.81a8.35,8.35,0,0,0-1.11.33c-.41,1.58.62,1.72,1,2.48ZM3.48,164.14a3,3,0,0,1,2.35,2.35c.44-1.13,2.87-.26,3.14-1.57.24-1.55-.88-1.74-2-2,.12-.92,1.21-.88,1.56-1.57-.89-.93-1.17.49-1.56,1.18-1.11-.8-1.62-.71-3.14-.39v-2.36c1.25-.23,1.21.74,2,0-1-1.37-2.4-3.76-1.18-5.1a34.69,34.69,0,0,1-4.53,1.74C.05,158.4,0,160.35,0,162.31a2.7,2.7,0,0,1,1.12.26c.33,1.11-.55,1-.39,2a2.56,2.56,0,0,0-.71-.06c0,.56,0,1.13,0,1.69a5.21,5.21,0,0,1,3.44-2Zm-2.36-5.89c1.68-.49,2.6,0,2,1.57-1.48.3-1.92-.44-2-1.57Zm.4-7.05c.47.85,3.6,0,2.35-.79.06,1.11-2.42-.33-2.35.79Zm11.37,3.13c1.25-1.67-3.65-1.82-1.57-4.31-3.18-.49-1.77-5.55-4.31-6.67-.59,2.68-3.48,3.05-3.53,6.28,1.61.3,2-.61,3.53-.39,1,1.85.64,2.93.39,5.09,2.34-.36,3.39-1.1,5.49,0ZM238.47,67.59c-1.78.08-1.46-1.94-2.35-2.75-1.57.13-2.9,0-3.53-.78a5.18,5.18,0,0,1-.79,4.71c2.16-1.65,2.09,3.52.39,3.53-1.1.32-1-.56-2-.4-.69,1.17-.59,3-1.18,2.75,1.66,2.39-2.89,5-.78,6.67,2.86.75,3.55-2.09,4.71-3.53.15.43,1.57,1.49,2,.39-1.49-.44-.87-3.82.39-3.92-.57-.34-1.24-.59-1.18-1.57,1.62-1.53,3.88-2.4,4.32-5.1Zm-82.76-4.71c.49,1.61,1,3.19,2.75,3.54,0-.75,1.3-.28,1.18-1.18-.18-1.61-1.06-3.16-3.93-2.36Zm-11,2c-.71,1.07-2.36-.21-3.13-.39-.61,1.66,2.17-.09,1.56,1.57,1.23.53,2.41-.93,1.57-1.18Zm14.52-14.9c-.07-.58.13-1.45-.4-1.56-.08.3-.33.45-.78.38.2,1,.52,1.38-.39,2,0-.24-.07-.46-.4-.38v.78c.09.44.44.61.79.78-.1-1.27,1.43-.91,2-1.56-.3-.09-.77,0-.78-.4ZM180,44.06c-1.44-1.11-3.1-1.21-5.1-.39.09,2.73,4.42,2.27,5.1.39Zm-17.26,3.13c.31-.27.88-2.18,0-2.35-.22.84-1.61,1.88,0,2.35Zm7.06,5.5c1.13-.18,2.16-.46,2.36-1.57-1.05,0-2.24.14-2.75-.4a2.59,2.59,0,0,0,.39,2Zm151.69,89.74c-1.79,1-3.62,1.32-5.38,2.61-1.28-1.16-2.57-2.33-3.7-1.12a2.63,2.63,0,0,0,.5,3,1.07,1.07,0,0,1-1.36.38c-.48,2.06,1.74,2.63,3.34,3.93a19.12,19.12,0,0,1-7.47,4.42c-.89,1.3.77,3.5-1.38,4,.92,1.17,1.62,2.92-.35,2.8-1.29-4.38,1.83-7.36.82-11.74-.73-1.08-1.28.24-2-.13-.82-.87.5-1.89-.19-2.77s-1.49,0-2.22.16c-3.92-3.05-7.28,1.71-10.95,2.18-.11,21.93-8.31,53.44-19.69,73.19,3.61,3.13,12.33-3.31,14.76.46,0,0-3.93.89-4,1,.84.22,4.2,6.62,4.91,7.12a58.29,58.29,0,0,1,13.38,8.24c16.84-27.77,25.16-65.77,24-96.86a6.63,6.63,0,0,0-1.84.65,2.6,2.6,0,0,0-1.22-1.58Zm-46.9,83.17c-.31,1.65.22,4.15-1.58,4.31-.61-.16-.33-1.23-1.56-.78-1.59,1.42-2.94,3.08-5.1,3.92-.29,2.77,1,4,1.18,6.28,1.84-.4,2.23.64,3.13,1.17,0-1.66,2.81-.48,3.53-.39.49-5.06,1.55-8.8,4.32-10.58.12-1.23-1.13,1-1.18-.4-.55-2,1.8-1.08,1.57-2.74m6.16,17.17c.49,1.6,1,3.19,2.75,3.53,0-.74,1.3-.27,1.18-1.18-.18-1.61-1.06-3.15-3.93-2.35Zm-11,2c-.71,1.06-2.36-.21-3.13-.39-.61,1.65,2.17-.09,1.56,1.57,1.23.53,2.41-.94,1.57-1.18Zm12.55-13.73c.09.44.44.61.79.79-.1-1.28,1.43-.92,2-1.57m-10.27.86c-1.21,2.91-2.38,5.82-.23,8.46,1-1,2.23,1.18,3.14-.28,1.68-2.54,2.25-5.84-2.91-8.18Zm17.14,8.1c-2.2,3.3-7.33-.66-9.71-1.22-1.89,5.14,6.73-.26,4.85,4.87,3.8,1.64,7.43-2.9,4.86-3.65Z"/><path class="cls-2" d="M153.79,149.67H91.4a32.12,32.12,0,0,0,10,23.85,33.15,33.15,0,0,0,24.06,9.79h28.32a16.42,16.42,0,0,0,11.92-4.79,15.85,15.85,0,0,0,4.9-11.82,16.68,16.68,0,0,0-4.79-12.13,16.13,16.13,0,0,0-12-4.9Z"/><path d="M141.86,251.66q35.35,0,60.69-24.81t25.34-60.15q0-35.34-25.34-60.36t-60.69-25H91.4a32.45,32.45,0,0,0,10,24,33,33,0,0,0,24.06,9.9h16.39q20.87,0,35.56,15.33t14.69,36.2a49.85,49.85,0,0,1-14.69,36,47.75,47.75,0,0,1-35.56,15.12H125.47a33,33,0,0,0-24.06,9.9,32.45,32.45,0,0,0-10,23.95Z"/></g></g></svg>