<?xml version="1.0" encoding="utf-8"?>
<!-- Generator: Adobe Illustrator 23.0.3, SVG Export Plug-In . SVG Version: 6.00 Build 0)  -->
<svg version="1.1" id="Layer_1" xmlns="http://www.w3.org/2000/svg" xmlns:xlink="http://www.w3.org/1999/xlink" x="0px" y="0px"
	 viewBox="0 0 397.1 212.3" style="enable-background:new 0 0 397.1 212.3;" xml:space="preserve">
<style type="text/css">
	.st0{display:none;}
	.st1{display:inline;}
	.st2{display:inline;clip-path:url(#SVGID_2_);fill:url(#SVGID_3_);}
	.st3{display:inline;clip-path:url(#SVGID_2_);fill:url(#SVGID_4_);}
	.st4{fill:#E30613;}
	.st5{fill:#010202;}
</style>
<g class="st0">
	<defs>
		<rect id="SVGID_1_" x="917.7" y="593.4" width="262.8" height="149.6"/>
	</defs>
	<clipPath id="SVGID_2_" class="st1">
		<use xlink:href="#SVGID_1_"  style="overflow:visible;"/>
	</clipPath>
	
		<linearGradient id="SVGID_3_" gradientUnits="userSpaceOnUse" x1="1054.2943" y1="651.0353" x2="1380.3208" y2="911.4734" gradientTransform="matrix(0.5045 -0.2942 -0.2942 0.5919 773.8844 626.3284)">
		<stop  offset="0.5102" style="stop-color:#DD0B18"/>
		<stop  offset="0.75" style="stop-color:#6C150B"/>
	</linearGradient>
	<polygon class="st2" points="1174.7,693.2 1224.2,735.9 1176.5,791.2 1127,748.5 	"/>
	
		<linearGradient id="SVGID_4_" gradientUnits="userSpaceOnUse" x1="1156.6379" y1="505.0052" x2="1156.6379" y2="716.3613" gradientTransform="matrix(1.3143 0.2711 0.2711 1.2338 -487.989 -420.8732)">
		<stop  offset="0" style="stop-color:#36373D"/>
		<stop  offset="0.5765" style="stop-color:#0D0E14"/>
	</linearGradient>
	<polygon class="st3" points="1117,505 1349.2,705.2 1278.5,787.3 1046.3,587 	"/>
</g>
<polygon class="st4" points="0,80.1 100,146 69.6,188.1 "/>
<g>
	<path class="st5" d="M369.9,141.4c5.8,0,14.6,0.2,24,0.3l3.2-14.5c-1.3-0.6-2.8-1.1-4.3-1.6l0.5-0.1l-0.8-0.2
		c-7.1-2.2-16.5-3.4-25.8-3.4c-20.2,0-31.6,5.7-38.1,19.2l-0.2,0.4l0.3-0.1c-2.7,5.7-4.5,12.9-5.8,21.6
		c-4.3,30.6,7.1,42.7,35.4,42.7c10.1,0,21.7-1.3,30.9-5.2l-1.6-15.6c-9,1.3-19.3,1.4-25.1,1.4c-13.7,0-17.2-3.1-14.8-22.2
		C349.9,145.6,355.5,141.4,369.9,141.4z"/>
	<path class="st5" d="M278.9,121.8c-30.9,0-42.6,10.2-46.3,40.5c-0.1,0.8-0.2,1.6-0.3,2.4l0,0.3l0.2-0.1
		c-2.5,26.9,7.4,40.7,37.5,40.7c10.8,0,25-1.4,34.9-5.6l-1.6-15.1c-9.5,1.1-22.9,1.8-30.6,1.8c-10,0-15.5-2.1-15.8-13.2l23.3-1.9
		c20.4-1.4,30.3-6.6,32.5-22.1c0.2-1.5,0.3-2.9,0.4-4.3l0.2-0.1l0-0.2c0.2-6.4-1.4-11.3-4.9-15C303.4,124.5,293.7,121.8,278.9,121.8
		z M276.8,157.5l-18.5,1.8c0-0.2,0.1-0.4,0.1-0.7l0.2-0.1l0-0.2c2.7-14.9,6.5-18.7,18.6-18.7c0.9,0,1.7,0,2.5,0
		c4.5,0,7.4,0.3,8.8,1.8c1,1.1,1.3,2.8,1.1,5.6c-0.2,1.4-0.4,2.6-0.8,3.6l-0.1,0.4l0.3-0.1C287.2,155.7,283.3,157,276.8,157.5z"/>
	<path class="st5" d="M210.7,97.5L185,110.9l-2,13.2l-14.7,0.8l-2,15.6h14.3l-5.6,38.6l0.2-0.1l-0.5,3.3
		c-2.1,14.5,5.6,23.3,20.6,23.3c5,0,15.9-0.8,22.2-3.1l-1.1-16.7h-10.6c-6.6,0-7.7-1.6-6.9-7.6l0.7-5.2l0.2-0.1l4.5-32.5h22.1
		l2.3-16.4h-22.1L210.7,97.5z"/>
	<polygon class="st5" points="110.9,108.4 110.9,108.5 52.3,161.4 85.1,212.3 166,94.6 166.3,94.5 231.1,0.2 230.9,0 	"/>
</g>
</svg>
